<?xml version="1.0" encoding="UTF-8" standalone="no"?>
<svg width="536px" height="536px" viewBox="0 0 536 536" version="1.1" xmlns="http://www.w3.org/2000/svg" xmlns:xlink="http://www.w3.org/1999/xlink" xmlns:sketch="http://www.bohemiancoding.com/sketch/ns">
    <!-- Generator: Sketch 3.3.2 (12043) - http://www.bohemiancoding.com/sketch -->
    <title>poll-result</title>
    <desc>Created with Sketch.</desc>
    <defs>
        <path id="path-1" d="M477.039461,435.724877 C427.920109,496.864964 352.530293,536 268,536 C119.987687,536 0,416.012313 0,268 C0,119.987687 119.987687,0 268,0 L268,268 L477.039461,435.724877 L477.039461,435.724877 Z"></path>
    </defs>
    <g id="Page-1" stroke="none" stroke-width="1" fill="none" fill-rule="evenodd" sketch:type="MSPage">
        <g id="poll-result" sketch:type="MSLayerGroup">
            <path d="M385.798833,508.789971 C350.245174,526.216241 310.265147,536 268,536 C119.987687,536 0,416.012313 0,268 C0,119.987687 119.987687,0 268,0 C416.012313,0 536,119.987687 536,268 C536,373.747166 474.753896,465.189539 385.798833,508.789971 C421.352493,491.363701 452.479785,466.29492 477.039461,435.724877 L477.039461,435.724877 L268,268 L268,0 C119.987687,0 0,119.987687 0,268 C0,416.012313 119.987687,536 268,536 C310.265147,536 350.245174,526.216241 385.798833,508.789971 L385.798833,508.789971 Z" id="Oval-1" fill="#006241" sketch:type="MSShapeGroup"></path>
            <mask id="mask-2" sketch:name="Mask" fill="white">
                <use xlink:href="#path-1"></use>
            </mask>
            <use id="Mask" fill="#7ED321" sketch:type="MSShapeGroup" xlink:href="#path-1"></use>
        </g>
    </g>
</svg>