<?xml version="1.0" encoding="UTF-8" standalone="no"?>
<!-- Generator: Adobe Illustrator 14.0.0, SVG Export Plug-In . SVG Version: 6.00 Build 43363)  -->

<svg
   xmlns:dc="http://purl.org/dc/elements/1.1/"
   xmlns:cc="http://creativecommons.org/ns#"
   xmlns:rdf="http://www.w3.org/1999/02/22-rdf-syntax-ns#"
   xmlns:svg="http://www.w3.org/2000/svg"
   xmlns="http://www.w3.org/2000/svg"
   xmlns:sodipodi="http://sodipodi.sourceforge.net/DTD/sodipodi-0.dtd"
   xmlns:inkscape="http://www.inkscape.org/namespaces/inkscape"
   version="1.0"
   x="0px"
   y="0px"
   width="352.77338"
   height="370.62546"
   viewBox="0 0 842.003 595"
   enable-background="new 0 0 842.003 595"
   xml:space="preserve"
   id="svg2"
   sodipodi:version="0.32"
   inkscape:version="0.48.4 r9939"
   sodipodi:docname="Green_Party_of_England_and_Wales_logo (1).svg"
   inkscape:output_extension="org.inkscape.output.svg.inkscape"><metadata
   id="metadata333"><rdf:RDF><cc:Work
       rdf:about=""><dc:format>image/svg+xml</dc:format><dc:type
         rdf:resource="http://purl.org/dc/dcmitype/StillImage" /></cc:Work></rdf:RDF></metadata><defs
   id="defs331"><inkscape:perspective
   sodipodi:type="inkscape:persp3d"
   inkscape:vp_x="0 : 297.5 : 1"
   inkscape:vp_y="0 : 1000 : 0"
   inkscape:vp_z="842.00299 : 297.5 : 1"
   inkscape:persp3d-origin="421.0015 : 198.33333 : 1"
   id="perspective335" /><inkscape:perspective
   id="perspective2715"
   inkscape:persp3d-origin="372.04724 : 350.78739 : 1"
   inkscape:vp_z="744.09448 : 526.18109 : 1"
   inkscape:vp_y="0 : 1000 : 0"
   inkscape:vp_x="0 : 526.18109 : 1"
   sodipodi:type="inkscape:persp3d" />
	

		
		
	
			
			
			
			
			
			
			
			
			
			
		
			
		
				
			</defs><sodipodi:namedview
   inkscape:window-height="1001"
   inkscape:window-width="944"
   inkscape:pageshadow="2"
   inkscape:pageopacity="0.0"
   guidetolerance="10.0"
   gridtolerance="10.0"
   objecttolerance="10.0"
   borderopacity="1.0"
   bordercolor="#666666"
   pagecolor="#ffffff"
   id="base"
   showgrid="false"
   inkscape:zoom="3.6547717"
   inkscape:cx="343.47412"
   inkscape:cy="34.051584"
   inkscape:window-x="0"
   inkscape:window-y="0"
   inkscape:current-layer="svg2"
   inkscape:window-maximized="0" />

<g
   id="g3363"
   transform="matrix(2.3046403,0,0,2.3046403,-666.57914,-412.85093)"
   style="fill:#6ab023;fill-opacity:1"><g
     transform="translate(-151.68436,-89.772379)"
     id="Layer_1"
     style="fill:#6ab023;fill-opacity:1">
</g><g
     transform="matrix(3.6677525,0,0,3.6677525,-1897.864,-404.30163)"
     id="g12"
     style="fill:#6ab023;fill-opacity:1">
					<path
   style="fill:#6ab023;fill-opacity:1"
   id="path14"
   d="M 674.427,195.877 C 675.926,186.672 671.626,177.465 665.827,172.069 C 659.221,166.36 649.011,163.462 640.209,165.756 C 638.205,166.061 637.002,166.955 635.406,167.457 C 628.591,170.561 623.488,177.063 621.388,184.274 C 619.49,192.773 622.391,202.087 627.494,207.99 C 632.494,213.094 638.097,215.896 645.11,217.295 C 650.813,217.399 657.41,216.696 662.418,213.492 C 668.526,209.481 673.021,203.682 674.427,195.877 z M 634.504,200.885 C 634.097,200.683 633.794,200.08 633.501,200.08 C 630.897,200.59 627.695,200.482 625.894,202.086 L 625.601,202.283 C 624.889,201.886 624.189,201.283 624.189,200.59 C 621.389,196.279 623.893,193.078 623.489,188.975 L 625.397,184.273 C 626.09,182.467 628.196,181.776 629.799,181.37 C 629.994,178.166 630.897,175.165 631.987,172.363 C 632.495,171.765 633.4,171.465 633.501,170.66 C 633.501,170.363 633.594,170.163 633.594,169.964 C 637.002,168.461 641.407,165.755 645.603,167.153 C 647.811,167.153 648.806,168.561 650.815,168.561 L 653.014,167.056 C 653.815,167.358 654.411,167.657 654.722,168.258 L 654.722,170.362 C 654.519,170.559 654.207,170.659 654.114,170.659 C 653.516,170.659 652.809,170.362 652.01,170.362 C 650.912,171.065 649.414,171.464 649.414,173.061 C 649.51,173.463 649.704,173.763 649.704,173.957 C 649.51,174.263 649.211,174.263 649.106,174.263 L 646.013,172.661 C 645.802,172.762 645.509,172.856 645.314,173.061 L 643.812,175.665 C 644.111,176.061 644.206,176.271 644.706,176.364 C 645.2,176.271 646.203,175.665 646.513,176.364 L 644.112,179.962 C 643.508,179.869 643.402,179.26 643.108,178.964 C 642.713,178.863 642.508,178.863 642.11,178.964 C 641.305,178.769 641.11,178.165 640.907,177.667 L 635.597,177.667 C 636,177.061 636.403,176.467 636.403,175.665 C 636.307,175.165 636.1,174.865 635.903,174.865 C 634.602,174.962 633.502,175.566 633.098,176.665 C 633.501,177.173 633.098,176.768 633.098,177.173 C 632.495,177.666 631.798,177.06 631.595,177.666 C 631.4,178.464 631.4,179.26 630.897,179.668 C 631.1,180.367 630.698,181.264 631.1,181.669 C 631.7,182.065 632.696,182.065 633.098,182.667 C 633.901,185.272 636.307,187.672 634.9,190.669 L 635.407,193.281 L 634.602,194.875 L 636.403,199.178 C 635.902,199.783 635.208,200.885 634.504,200.885 z M 654.113,176.667 C 653.515,177.869 652.213,178.167 651.722,179.262 C 650.511,178.865 649.509,179.262 648.41,179.466 C 647.809,179.871 647.71,179.172 647.71,178.966 C 649.21,177.764 651.012,175.166 653.41,175.363 L 654.113,176.667 z M 666.318,198.675 L 666.318,200.279 C 666.227,200.885 666.02,200.885 665.32,201.587 C 664.126,202.284 662.621,203.682 661.219,202.578 C 660.917,200.08 659.116,198.477 658.418,196.58 C 658.117,196.381 658.011,196.279 657.717,196.279 C 657.318,196.382 657.017,196.58 657.017,196.981 C 659.018,199.485 659.018,203.382 662.325,204.182 C 662.325,204.586 662.219,204.781 662.015,204.894 L 657.717,207.99 C 656.912,208.884 656.512,210.494 655.612,211.99 C 654.009,212.997 653.515,215.095 651.722,215.896 L 648.41,216.293 L 646.706,215.896 C 646.512,215.292 646.904,214.786 646.706,213.888 C 646.904,210.29 645.602,206.686 646.706,203.182 C 646.304,202.086 645.509,201.284 644.705,200.885 C 643.605,200.279 642.108,200.683 641.701,199.584 L 640.905,196.981 C 640.997,196.18 641.406,195.877 641.603,194.877 C 642.711,193.778 643.811,192.679 645.313,192.679 L 648.41,190.672 C 648.788,190.672 649.327,191.197 649.489,190.773 L 649.308,190.773 L 649.489,190.763 C 649.491,190.763 649.491,190.753 649.491,190.753 C 649.413,190.71 649.348,190.672 649.308,190.672 L 649.491,190.654 L 648.41,188.776 L 649.413,187.076 C 649.91,186.776 650.813,187.174 650.911,186.672 L 650.691,185.767 L 649.009,185.767 L 650.691,185.767 L 650.52,185.072 L 650.311,185.072 L 650.208,184.973 C 650.208,184.877 650.208,184.675 650.112,184.675 L 650.424,184.675 L 650.422,184.66 C 650.364,184.642 650.311,184.625 650.311,184.567 L 650.398,184.521 L 650.209,183.767 C 650.209,183.174 650.511,183.07 650.813,182.77 C 650.911,182.671 651.323,182.671 651.323,182.671 L 652.714,183.174 C 653.013,182.77 653.41,182.77 653.718,182.671 C 654.113,182.77 654.206,182.868 654.206,183.07 C 654.41,183.767 653.718,183.767 653.718,184.275 C 653.746,184.326 653.768,184.386 653.801,184.444 L 653.814,184.168 L 654.075,184.767 L 654.309,184.767 C 654.237,184.843 654.187,184.903 654.144,184.949 L 654.197,185.068 L 654.207,185.073 L 654.207,184.974 L 654.207,185.073 L 654.255,185.093 L 654.617,185.073 L 654.617,185.272 C 654.645,185.272 654.678,185.277 654.721,185.277 L 655.63,184.486 L 655.611,184.469 C 655.62,184.469 655.634,184.469 655.634,184.469 L 655.716,184.406 L 655.716,184.073 L 655.92,184.225 L 655.955,184.198 C 655.927,184.149 655.916,184.097 655.916,184.073 C 655.955,184.111 655.971,184.139 655.984,184.167 L 658.417,182.068 C 659.017,182.671 660.218,182.867 660.811,182.373 C 662.014,179.872 663.517,176.771 662.014,173.959 C 661.321,173.562 660.318,173.465 660.218,172.663 C 660.117,172.165 660.318,172.069 660.811,172.069 C 661.321,172.165 661.919,172.069 662.717,172.069 C 666.616,174.164 668.825,178.068 670.821,181.371 C 673.427,187.675 674.125,194.775 671.323,201.284 C 671.021,201.385 670.821,201.284 670.821,201.284 L 670.32,199.879 C 670.217,199.584 669.925,199.384 669.724,198.879 C 669.036,198.093 667.362,198.085 666.356,198.659 L 666.518,198.675 L 666.318,198.675 L 666.318,198.675 z" />
					<path
   style="fill:#6ab023;fill-opacity:1"
   id="path16"
   d="M 675.325,210.291 C 674.026,210.291 673.021,209.791 671.722,209.594 C 671.023,209.791 670.622,210.291 670.219,210.892 C 672.028,213.095 675.236,215.194 676.023,218.689 C 678.423,222.593 682.034,224.907 686.638,225.898 C 683.041,220.691 681.934,213.094 675.325,210.291 z" />
					<path
   style="fill:#6ab023;fill-opacity:1"
   id="path18"
   d="M 667.726,213.697 C 667.431,213.697 667.319,213.697 667.028,213.888 C 666.924,214.095 666.924,214.188 666.719,214.592 C 666.618,215.49 667.431,215.896 668.022,216.293 C 669.727,219.796 673.334,222.099 677.227,223.699 L 677.424,223.499 L 677.424,223.3 C 675.139,219.601 673.021,214.493 667.726,213.697 z" />
					<path
   style="fill:#6ab023;fill-opacity:1"
   id="path20"
   d="M 650.612,184.674 L 650.745,184.674 C 650.692,184.654 650.638,184.641 650.612,184.674 z" />
					<path
   style="fill:#6ab023;fill-opacity:1"
   id="path22"
   d="M 649.492,190.753 C 649.492,190.753 649.492,190.763 649.49,190.763 L 649.513,190.763 C 649.51,190.763 649.5,190.753 649.492,190.753 z" />
					<path
   style="fill:#6ab023;fill-opacity:1"
   id="path24"
   d="M 651.114,184.566 L 651.012,184.467 L 650.612,184.467 C 650.735,184.566 650.809,184.633 650.847,184.674 L 651.114,184.674 C 651.031,184.674 650.865,184.743 650.822,184.838 L 651.21,184.744 L 651.21,184.675 L 651.114,184.566 z" />
					<path
   style="fill:#6ab023;fill-opacity:1"
   id="path26"
   d="M 655.718,184.404 L 655.636,184.467 C 655.665,184.467 655.692,184.467 655.718,184.467 L 655.718,184.404 z" />
					<path
   style="fill:#6ab023;fill-opacity:1"
   id="path28"
   d="M 656.015,184.292 C 655.998,184.26 655.973,184.224 655.957,184.197 L 655.922,184.224 L 656.015,184.293 C 656.015,184.293 656.015,184.293 656.015,184.292 z" />
					<path
   style="fill:#6ab023;fill-opacity:1"
   id="path30"
   d="M 664.05,198.383 L 664.126,198.391 C 664.126,198.391 664.126,198.391 664.126,198.383 L 664.05,198.383 z" />
					<path
   style="fill:#6ab023;fill-opacity:1"
   id="path32"
   d="M 650.555,190.672 L 650.21,190.672 L 650.21,190.722 L 650.558,190.71 C 650.558,190.704 650.558,190.68 650.555,190.672 z" />
					<path
   style="fill:#6ab023;fill-opacity:1"
   id="path34"
   d="M 650.531,184.667 C 650.498,184.662 650.459,184.662 650.424,184.659 L 650.426,184.674 L 650.531,184.674 L 650.531,184.667 z" />
					<path
   style="fill:#6ab023;fill-opacity:1"
   id="path36"
   d="M 663.619,198.28 L 663.774,198.28 C 663.74,198.28 663.72,198.288 663.72,198.184 L 663.518,198.184 C 663.581,198.214 663.619,198.252 663.619,198.28 z" />
					<polygon
   style="fill:#6ab023;fill-opacity:1"
   id="polygon38"
   points="663.828,198.351 663.828,198.383 664.024,198.383 664.05,198.383 663.828,198.351 " />
					<path
   style="fill:#6ab023;fill-opacity:1"
   id="path40"
   d="M 675.828,204.091 C 675.139,204.182 674.732,204.182 674.427,204.586 C 674.233,204.781 674.127,204.894 674.127,205.288 C 674.127,205.586 674.127,205.984 674.427,206.294 L 682.034,209.891 L 686.341,209.891 C 686.738,209.791 686.936,209.791 686.738,209.191 C 683.334,207.285 680.232,204.182 675.828,204.091 z" />
					<path
   style="fill:#6ab023;fill-opacity:1"
   id="path42"
   d="M 688.049,201.679 C 685.133,199.084 680.835,198.879 677.033,199.584 C 676.726,199.783 676.326,199.879 676.326,199.879 C 676.326,200.279 675.828,200.59 675.828,201.284 C 679.43,202.578 682.034,204.487 685.133,206.592 C 686.341,207.386 687.844,207.785 689.44,208.293 L 694.243,207.59 C 692.734,204.781 689.74,203.785 688.049,201.679 z" />
					<path
   style="fill:#6ab023;fill-opacity:1"
   id="path44"
   d="M 596.677,196.279 L 607.482,199.584 C 610.176,199.783 612.783,199.18 615.386,198.477 C 616.385,198.084 617.483,197.279 617.789,196.279 L 617.082,194.382 C 610.681,197.074 601.965,190.179 596.677,196.279 z" />
					<path
   style="fill:#6ab023;fill-opacity:1"
   id="path46"
   d="M 690.143,193.677 C 690.143,193.379 690.143,193.177 690.143,193.078 C 686.032,193.178 681.736,191.476 677.735,193.677 C 677.424,193.876 677.332,194.775 677.424,195.278 L 679.43,195.877 C 683.041,195.877 686.936,195.278 690.143,193.677 z" />
					<path
   style="fill:#6ab023;fill-opacity:1"
   id="path48"
   d="M 650.814,190.672 L 650.554,190.672 C 650.557,190.68 650.557,190.704 650.557,190.71 L 651.209,190.672 L 650.663,190.854 C 650.832,191.015 651.159,191.164 651.323,191.375 L 652.41,193.283 L 656.912,194.877 L 657.016,194.774 L 657.317,194.58 C 657.317,194.016 656.921,193.721 656.445,193.476 L 656.412,193.476 L 656.412,193.459 C 655.962,193.239 655.457,193.062 655.12,192.771 C 655.056,192.771 654.982,192.79 654.911,192.804 L 654.911,192.804 C 654.968,192.864 655.013,192.931 655.013,192.976 C 655.004,192.981 655.004,192.989 655.001,192.996 C 655.023,193.011 654.958,193.038 655.001,192.996 C 654.989,192.981 654.968,192.976 654.911,192.976 L 654.911,192.804 L 654.911,192.804 C 654.499,192.88 653.925,193.134 653.41,192.873 L 653.013,190.377 C 652.41,189.872 651.324,189.981 650.814,190.377 C 650.735,190.422 650.686,190.458 650.637,190.5 L 650.814,190.472 L 650.814,190.672 L 650.814,190.672 z" />
					<path
   style="fill:#6ab023;fill-opacity:1"
   id="path50"
   d="M 617.392,190.672 C 617.392,190.379 617.392,190.276 617.082,190.179 C 614.478,189.874 611.589,189.481 608.775,189.481 C 606.683,189.875 604.275,190.179 602.874,191.376 L 610.176,193.079 C 612.687,193.178 615.682,192.173 617.392,190.672 z" />
					<path
   style="fill:#6ab023;fill-opacity:1"
   id="path52"
   d="M 658.714,192.173 C 658.512,192.679 659.019,193.078 659.412,193.078 L 659.72,192.874 C 659.517,192.478 659.221,192.173 658.714,192.173 z" />
					<path
   style="fill:#6ab023;fill-opacity:1"
   id="path54"
   d="M 690.143,186.776 C 685.933,185.575 681.341,185.374 677.735,187.076 C 677.227,187.778 677.634,188.976 677.424,189.984 L 687.44,191.778 C 690.345,191.477 694.138,190.981 695.846,188.276 C 694.138,187.675 691.937,187.872 690.143,186.776 z" />
					<path
   style="fill:#6ab023;fill-opacity:1"
   id="path56"
   d="M 608.775,178.771 C 605.88,176.063 601.369,176.273 597.874,177.063 C 597.874,177.669 597.469,177.063 597.874,177.669 C 603.178,180.37 606.776,184.973 613.183,186.371 L 613.476,186.27 L 617.789,185.374 C 618.085,184.972 618.194,184.273 618.085,183.766 C 614.479,182.867 611.589,181.073 608.775,178.771 z" />
					<path
   style="fill:#6ab023;fill-opacity:1"
   id="path58"
   d="M 656.801,184.972 C 656.652,185.223 656.491,185.48 656.218,185.674 C 656.015,185.972 656.309,186.475 656.725,186.371 L 658.512,185.674 L 658.322,184.274 C 658.322,184.274 658.012,184.167 657.718,183.971 C 657.251,184.148 657.047,184.525 656.837,184.909 L 656.913,184.972 L 656.801,184.972 L 656.801,184.972 z" />
					<path
   style="fill:#6ab023;fill-opacity:1"
   id="path60"
   d="M 676.023,181.672 L 676.326,183.575 C 676.326,183.575 676.533,183.575 676.726,183.765 C 680.63,183.371 683.531,181.37 686.34,178.77 L 687.341,176.365 C 684.739,176.769 682.431,179.67 679.027,179.465 C 677.734,180.264 676.624,180.37 676.023,181.672 z" />
					<path
   style="fill:#6ab023;fill-opacity:1"
   id="path62"
   d="M 607.782,173.764 C 606.776,173.958 605.881,173.858 605.275,174.663 C 608.082,176.769 610.881,179.262 615.183,180.667 L 619.49,179.963 C 619.583,179.87 619.781,179.67 619.781,179.261 C 616.385,176.77 612.878,173.465 607.782,173.764 z" />
					<path
   style="fill:#6ab023;fill-opacity:1"
   id="path64"
   d="M 690.245,169.964 C 690.345,169.556 690.54,169.254 690.639,168.964 C 687.039,169.859 683.041,170.362 679.134,171.365 C 676.727,172.468 674.427,173.857 673.43,175.967 C 673.43,177.062 673.832,178.067 674.835,178.77 L 675.139,178.77 C 681.341,177.063 687.039,175.968 690.245,169.964 z" />
					<path
   style="fill:#6ab023;fill-opacity:1"
   id="path66"
   d="M 621.389,174.664 L 622.797,174.265 C 623.086,173.765 623.598,173.466 623.598,172.663 C 619.188,170.661 617.789,165.556 614.984,162.351 C 613.088,160.954 610.584,159.447 607.482,159.151 C 609.881,161.959 611.378,165.555 612.878,168.964 C 614.983,172.069 618.194,173.365 621.389,174.664 z" />
					<path
   style="fill:#6ab023;fill-opacity:1"
   id="path68"
   d="M 680.631,160.751 C 677.735,162.858 675.236,165.96 671.723,167.762 C 670.623,168.861 669.727,169.459 669.425,170.66 L 670.823,172.662 L 671.023,172.662 C 673.729,171.765 676.023,169.556 678.031,167.657 L 680.631,160.751 z" />
					<path
   style="fill:#6ab023;fill-opacity:1"
   id="path70"
   d="M 622.092,168.759 L 625.397,169.964 C 625.894,169.964 625.997,169.964 626.397,169.86 C 626.59,169.86 626.69,169.66 626.791,169.255 C 624.89,164.861 621.692,161.96 616.386,160.354 C 616.093,160.354 615.89,160.354 615.89,160.354 L 619.783,167.058 L 622.092,168.759 z" />
					<path
   style="fill:#6ab023;fill-opacity:1"
   id="path72"
   d="M 666.924,168.86 L 667.431,168.759 C 671.326,164.456 677.836,164.258 680.233,158.353 C 680.531,157.055 680.531,155.947 680.934,154.947 C 680.934,154.849 680.835,154.849 680.332,154.849 C 676.326,158.553 668.827,158.056 666.318,163.754 C 666.227,165.154 665.32,166.059 665.32,167.358 C 665.521,168.162 666.318,168.461 666.924,168.86 z" />
					<path
   style="fill:#6ab023;fill-opacity:1"
   id="path74"
   d="M 631.1,165.96 L 632.798,165.359 C 632.901,165.256 633.098,164.953 633.098,164.656 C 630.195,159.251 630.4,151.946 624.489,148.146 C 623.598,147.639 623.189,147.146 622.486,147.045 C 624.489,150.643 624.189,156.046 625.894,160.65 C 627.002,162.858 628.905,164.86 631.1,165.96 z" />
					<path
   style="fill:#6ab023;fill-opacity:1"
   id="path76"
   d="M 659.72,163.954 C 659.813,164.456 660.22,164.86 661.018,164.954 C 661.323,164.954 661.921,164.861 662.016,164.657 C 664.126,162.157 665.521,157.449 664.225,153.748 L 659.517,163.259 C 659.517,163.462 659.517,163.755 659.72,163.954 z" />
					<path
   style="fill:#6ab023;fill-opacity:1"
   id="path78"
   d="M 636.598,163.755 L 636.8,163.555 L 637.1,163.462 C 638.098,161.45 636.8,158.754 635.709,156.651 C 634.196,154.85 632.396,152.441 630.399,151.452 C 630.896,153.747 631.797,156.047 632.301,158.753 C 633.4,160.651 634.196,162.858 636.598,163.755 z" />
					<path
   style="fill:#6ab023;fill-opacity:1"
   id="path80"
   d="M 656.015,162.858 L 656.309,162.658 C 658.714,158.353 663.421,154.85 663.317,148.95 C 662.821,147.638 663.519,146.043 662.622,145.136 C 660.813,148.146 657.412,151.451 654.81,154.647 C 653.516,156.948 653.116,159.65 653.116,162.052 L 655.811,163.05 L 656.015,162.858 z" />
					<path
   style="fill:#6ab023;fill-opacity:1"
   id="path82"
   d="M 641.702,161.959 C 641.8,161.959 642.008,161.959 642.109,162.053 L 644.002,161.45 C 643.201,157.448 645.111,153.154 645.803,148.95 C 645.112,146.441 644.706,143.735 643.108,141.942 C 641.305,147.639 637.896,153.551 640.402,159.953 L 641.702,161.959 z" />
					<path
   style="fill:#6ab023;fill-opacity:1"
   id="path84"
   d="M 647.811,161.656 L 648.013,161.656 C 648.111,161.656 648.514,161.656 648.703,161.45 C 649.106,160.751 649.211,159.651 649.704,158.753 C 650.512,154.947 649.704,150.746 647.711,148.045 C 647.41,152.043 645.2,156.949 647.206,160.953 C 647.41,161.353 647.41,161.45 647.811,161.656 z" />
					<polygon
   style="fill:#6ab023;fill-opacity:1"
   id="polygon86"
   points="649.31,190.773 649.49,190.773 649.49,190.763 649.31,190.773 " />
					<path
   style="fill:#6ab023;fill-opacity:1"
   id="path88"
   d="M 649.514,190.763 L 649.491,190.763 C 649.491,190.768 649.491,190.773 649.491,190.773 L 649.548,190.773 C 649.538,190.773 649.525,190.768 649.514,190.763 z" />
					<path
   style="fill:#6ab023;fill-opacity:1"
   id="path90"
   d="M 650.558,190.71 L 650.21,190.722 L 650.21,190.773 L 650.21,190.876 L 650.612,190.876 L 650.664,190.855 C 650.612,190.813 650.578,190.763 650.558,190.71 z" />
					<path
   style="fill:#6ab023;fill-opacity:1"
   id="path92"
   d="M 650.558,190.71 C 650.579,190.763 650.613,190.813 650.664,190.854 L 651.21,190.672 L 650.558,190.71 z" />
					<path
   style="fill:#6ab023;fill-opacity:1"
   id="path94"
   d="M 650.313,184.566 C 650.313,184.624 650.367,184.641 650.424,184.659 L 650.4,184.52 L 650.313,184.566 z" />
					<path
   style="fill:#6ab023;fill-opacity:1"
   id="path96"
   d="M 650.612,184.467 L 651.012,184.467 L 651.114,184.566 L 651.21,184.674 L 651.21,184.743 L 651.359,184.705 C 651.415,184.69 651.471,184.674 651.51,184.674 L 651.359,184.705 C 651.302,184.723 651.255,184.743 651.21,184.756 L 651.21,184.875 L 651.61,184.875 L 651.61,184.764 L 651.814,184.764 L 651.915,184.673 L 651.915,184.565 L 652.01,184.565 L 652.01,184.466 L 652.113,184.466 L 652.113,184.368 L 652.214,184.368 L 652.214,184.272 L 652.314,184.272 L 652.413,184.165 C 652.413,183.765 652.413,183.47 652.61,183.172 L 650.401,184.519 L 650.425,184.658 C 650.46,184.661 650.499,184.661 650.532,184.666 L 650.612,184.467 z" />
					<path
   style="fill:#6ab023;fill-opacity:1"
   id="path98"
   d="M 655.918,184.072 C 655.918,184.097 655.929,184.148 655.957,184.197 L 655.986,184.166 C 655.973,184.138 655.957,184.11 655.918,184.072 z" />
					<path
   style="fill:#6ab023;fill-opacity:1"
   id="path100"
   d="M 655.986,184.166 L 655.957,184.197 C 655.973,184.224 655.998,184.26 656.015,184.292 C 656.015,184.26 656.008,184.212 655.986,184.166 z" />
					<path
   style="fill:#6ab023;fill-opacity:1"
   id="path102"
   d="M 656.024,184.3 C 656.014,184.293 656.014,184.293 656.014,184.292 C 656.014,184.293 656.014,184.293 656.014,184.293 L 656.024,184.3 z" />
					<polygon
   style="fill:#6ab023;fill-opacity:1"
   id="polygon104"
   points="656.122,184.37 656.122,184.37 656.122,184.37 " />
					<polygon
   style="fill:#6ab023;fill-opacity:1"
   id="polygon106"
   points="655.718,184.072 655.718,184.404 655.922,184.224 655.718,184.072 " />
					<path
   style="fill:#6ab023;fill-opacity:1"
   id="path108"
   d="M 655.918,184.674 L 656.015,184.765 L 655.718,184.55 L 655.718,184.765 L 655.811,184.765 L 655.811,184.972 L 656.801,184.972 C 656.809,184.953 656.825,184.932 656.837,184.909 L 656.122,184.369 L 656.122,184.414 C 656.146,184.449 656.185,184.467 656.218,184.467 L 656.218,184.674 L 656.413,184.674 L 656.413,184.765 C 656.422,184.783 656.43,184.783 656.43,184.785 C 656.506,184.81 656.492,184.838 656.43,184.785 C 656.404,184.783 656.367,184.765 656.309,184.765 L 656.218,184.674 L 656.122,184.566 L 656.122,184.414 C 656.098,184.394 656.084,184.384 656.077,184.369 C 656.014,184.359 656.014,184.339 656.014,184.293 L 655.921,184.224 L 655.717,184.404 L 655.717,184.467 C 655.918,184.471 655.918,184.497 655.918,184.674 z" />
					<path
   style="fill:#6ab023;fill-opacity:1"
   id="path110"
   d="M 656.122,184.37 L 656.024,184.301 C 656.044,184.325 656.064,184.345 656.077,184.37 C 656.084,184.37 656.098,184.37 656.122,184.37 z" />
					<path
   style="fill:#6ab023;fill-opacity:1"
   id="path112"
   d="M 656.913,184.972 L 656.837,184.909 C 656.825,184.932 656.809,184.953 656.801,184.972 L 656.913,184.972 z" />
					<path
   style="fill:#6ab023;fill-opacity:1"
   id="path114"
   d="M 656.43,184.785 C 656.43,184.783 656.422,184.783 656.413,184.765 L 656.413,184.674 L 656.218,184.674 L 656.309,184.765 C 656.367,184.765 656.403,184.783 656.43,184.785 z" />
					<path
   style="fill:#6ab023;fill-opacity:1"
   id="path116"
   d="M 656.218,184.674 L 656.218,184.467 C 656.185,184.467 656.147,184.449 656.122,184.414 L 656.122,184.566 L 656.218,184.674 z" />
					<path
   style="fill:#6ab023;fill-opacity:1"
   id="path118"
   d="M 656.43,184.785 C 656.491,184.838 656.506,184.81 656.43,184.785 L 656.43,184.785 z" />
					<path
   style="fill:#6ab023;fill-opacity:1"
   id="path120"
   d="M 656.077,184.37 C 656.064,184.345 656.044,184.325 656.024,184.301 L 656.014,184.294 C 656.015,184.34 656.015,184.36 656.077,184.37 z" />
					<path
   style="fill:#6ab023;fill-opacity:1"
   id="path122"
   d="M 656.122,184.415 L 656.122,184.37 L 656.122,184.37 C 656.098,184.37 656.084,184.37 656.077,184.37 C 656.084,184.384 656.098,184.395 656.122,184.415 z" />
					<path
   style="fill:#6ab023;fill-opacity:1"
   id="path124"
   d="M 654.338,185.197 C 654.412,185.23 654.504,185.251 654.617,185.27 L 654.617,185.071 L 654.255,185.091 L 654.411,185.17 C 654.391,185.17 654.374,185.186 654.338,185.197 z" />
					<path
   style="fill:#6ab023;fill-opacity:1"
   id="path126"
   d="M 654.267,185.237 L 654.412,185.575 L 654.519,185.471 L 654.618,185.375 L 654.618,185.271 C 654.505,185.252 654.413,185.231 654.339,185.198 C 654.319,185.208 654.29,185.224 654.267,185.237 z" />
					<path
   style="fill:#6ab023;fill-opacity:1"
   id="path128"
   d="M 653.747,185.118 L 650.612,185.275 C 651.114,185.575 651.915,185.275 652.312,185.47 L 652.312,185.574 L 652.51,185.574 C 652.51,185.766 652.608,185.574 652.608,185.766 L 652.911,185.766 L 652.911,185.873 L 653.814,185.873 L 653.814,185.766 L 654.113,185.766 C 654.113,185.574 654.207,185.766 654.207,185.574 L 653.719,185.574 L 653.747,185.118 z" />
					<path
   style="fill:#6ab023;fill-opacity:1"
   id="path130"
   d="M 654.131,185.027 L 654.197,185.067 L 654.144,184.948 C 654.125,184.965 654.113,184.983 654.102,185.003 C 654.113,185.003 654.123,185.023 654.131,185.027 z" />
					<path
   style="fill:#6ab023;fill-opacity:1"
   id="path132"
   d="M 654.075,184.765 L 653.814,184.166 L 653.801,184.442 C 653.854,184.566 653.91,184.674 653.966,184.765 L 654.075,184.765 L 654.075,184.765 z" />
					<path
   style="fill:#6ab023;fill-opacity:1"
   id="path134"
   d="M 654.131,185.027 C 654.123,185.024 654.113,185.004 654.103,185.002 L 654.088,185.003 L 654.131,185.027 z" />
					<path
   style="fill:#6ab023;fill-opacity:1"
   id="path136"
   d="M 653.967,184.765 C 653.911,184.674 653.855,184.566 653.802,184.442 L 653.769,184.765 L 653.967,184.765 z" />
					<path
   style="fill:#6ab023;fill-opacity:1"
   id="path138"
   d="M 653.886,185.071 L 653.815,185.071 L 653.815,184.972 L 653.764,184.972 L 653.747,185.118 L 653.916,185.103 C 653.911,185.096 653.901,185.08 653.886,185.071 z" />
					<path
   style="fill:#6ab023;fill-opacity:1"
   id="path140"
   d="M 654.207,185.275 L 654.207,185.47 L 654.01,185.47 C 654.01,185.435 654.01,185.399 654.01,185.374 L 654.01,185.374 L 654.01,185.275 C 654.01,185.275 653.969,185.197 653.916,185.103 L 653.747,185.118 L 653.719,185.575 L 654.207,185.575 L 654.411,185.575 L 654.266,185.237 C 654.255,185.25 654.235,185.26 654.207,185.275 z" />
					<path
   style="fill:#6ab023;fill-opacity:1"
   id="path142"
   d="M 654.207,185.47 L 654.207,185.275 C 654.187,185.287 654.174,185.3 654.141,185.317 C 654.188,185.374 654.207,185.436 654.207,185.47 z" />
					<path
   style="fill:#6ab023;fill-opacity:1"
   id="path144"
   d="M 654.31,184.765 L 654.076,184.765 L 654.145,184.947 C 654.188,184.901 654.237,184.841 654.31,184.765 z" />
					<path
   style="fill:#6ab023;fill-opacity:1"
   id="path146"
   d="M 653.516,184.765 C 653.623,184.765 653.623,184.876 653.623,184.972 L 653.764,184.972 L 653.769,184.765 L 653.516,184.765 z" />
					<path
   style="fill:#6ab023;fill-opacity:1"
   id="path148"
   d="M 654.103,185.002 C 654.114,184.982 654.126,184.964 654.145,184.947 L 654.076,184.765 L 653.968,184.765 C 654.01,184.851 654.055,184.939 654.103,185.002 z" />
					<path
   style="fill:#6ab023;fill-opacity:1"
   id="path150"
   d="M 653.814,185.071 L 653.885,185.071 C 653.854,184.991 653.814,184.909 653.814,184.876 L 653.916,184.972 L 654.01,185.071 L 654.01,184.972 L 654.088,185.003 L 654.103,185.002 C 654.055,184.939 654.01,184.851 653.967,184.765 L 653.769,184.765 L 653.764,184.972 L 653.815,184.972 L 653.815,185.071 L 653.814,185.071 z" />
					<path
   style="fill:#6ab023;fill-opacity:1"
   id="path152"
   d="M 654.01,185.374 C 654.01,185.399 654.01,185.436 654.01,185.47 L 654.207,185.47 L 654.088,185.346 C 654.059,185.361 654.04,185.374 654.01,185.374 z" />
					<polygon
   style="fill:#6ab023;fill-opacity:1"
   id="polygon154"
   points="650.405,184.972 650.21,184.972 650.313,185.071 650.521,185.071 650.498,184.972 650.405,184.972 " />
					<path
   style="fill:#6ab023;fill-opacity:1"
   id="path156"
   d="M 651.013,184.972 L 651.013,184.876 L 651.115,184.765 C 651.137,184.765 651.17,184.764 651.211,184.757 L 651.211,184.744 L 650.823,184.838 C 650.815,184.841 650.815,184.859 650.815,184.876 L 650.815,184.972 L 650.512,184.972 L 650.498,184.972 L 650.521,185.071 L 650.912,185.071 L 651.013,184.972 z" />
					<path
   style="fill:#6ab023;fill-opacity:1"
   id="path158"
   d="M 651.21,184.744 L 651.21,184.757 C 651.256,184.744 651.303,184.724 651.359,184.706 L 651.21,184.744 z" />
					<path
   style="fill:#6ab023;fill-opacity:1"
   id="path160"
   d="M 651.359,184.706 L 651.51,184.675 C 651.472,184.674 651.415,184.691 651.359,184.706 z" />
					<path
   style="fill:#6ab023;fill-opacity:1"
   id="path162"
   d="M 650.745,184.674 L 650.848,184.674 C 650.81,184.632 650.736,184.566 650.613,184.467 L 650.613,184.674 C 650.638,184.641 650.692,184.654 650.745,184.674 z" />
					<polygon
   style="fill:#6ab023;fill-opacity:1"
   id="polygon164"
   points="650.512,184.904 650.638,184.876 650.512,184.876 650.512,184.904 " />
					<path
   style="fill:#6ab023;fill-opacity:1"
   id="path166"
   d="M 650.531,184.667 L 650.531,184.674 L 650.612,184.674 C 650.591,184.674 650.558,184.667 650.531,184.667 z" />
					<path
   style="fill:#6ab023;fill-opacity:1"
   id="path168"
   d="M 650.612,184.467 L 650.531,184.667 C 650.557,184.667 650.591,184.674 650.612,184.674 L 650.612,184.467 z" />
					<polygon
   style="fill:#6ab023;fill-opacity:1"
   id="polygon170"
   points="650.512,184.904 650.512,184.972 650.814,184.972 650.814,184.876 650.638,184.876 650.512,184.904 " />
					<polygon
   style="fill:#6ab023;fill-opacity:1"
   id="polygon172"
   points="654.207,185.091 654.207,185.071 654.197,185.066 654.207,185.091 " />
					<polygon
   style="fill:#6ab023;fill-opacity:1"
   id="polygon174"
   points="654.255,185.091 654.207,185.071 654.207,185.091 654.255,185.091 " />
					<polygon
   style="fill:#6ab023;fill-opacity:1"
   id="polygon176"
   points="654.207,185.091 654.207,185.091 654.207,185.103 654.207,185.091 " />
					<path
   style="fill:#6ab023;fill-opacity:1"
   id="path178"
   d="M 654.207,185.103 L 654.214,185.118 C 654.26,185.143 654.29,185.171 654.338,185.198 C 654.374,185.186 654.391,185.171 654.411,185.171 L 654.255,185.092 L 654.207,185.092 L 654.207,185.103 z" />
					<path
   style="fill:#6ab023;fill-opacity:1"
   id="path180"
   d="M 654.338,185.197 C 654.29,185.17 654.26,185.142 654.214,185.117 L 654.267,185.236 C 654.29,185.224 654.319,185.208 654.338,185.197 z" />
					<path
   style="fill:#6ab023;fill-opacity:1"
   id="path182"
   d="M 654.188,185.091 L 654.208,185.091 L 654.198,185.066 L 654.132,185.026 C 654.146,185.055 654.176,185.071 654.188,185.091 z" />
					<path
   style="fill:#6ab023;fill-opacity:1"
   id="path184"
   d="M 654.047,185.096 L 654.188,185.091 C 654.176,185.071 654.146,185.054 654.131,185.027 L 654.088,185.004 C 654.075,185.043 654.059,185.071 654.047,185.096 z" />
					<path
   style="fill:#6ab023;fill-opacity:1"
   id="path186"
   d="M 654.207,185.108 L 654.207,185.103 L 654.207,185.091 L 654.187,185.091 C 654.197,185.096 654.207,185.108 654.207,185.108 z" />
					<path
   style="fill:#6ab023;fill-opacity:1"
   id="path188"
   d="M 654.214,185.118 L 654.207,185.103 L 654.207,185.108 C 654.212,185.118 654.212,185.118 654.214,185.118 z" />
					<path
   style="fill:#6ab023;fill-opacity:1"
   id="path190"
   d="M 654.207,185.275 C 654.235,185.26 654.255,185.25 654.267,185.237 L 654.214,185.118 C 654.212,185.118 654.212,185.118 654.207,185.108 L 654.207,185.275 z" />
					<path
   style="fill:#6ab023;fill-opacity:1"
   id="path192"
   d="M 654.04,185.139 C 654.059,185.19 654.103,185.253 654.141,185.316 C 654.174,185.299 654.188,185.286 654.207,185.274 L 654.207,185.107 C 654.207,185.107 654.197,185.095 654.187,185.09 L 654.046,185.095 C 654.047,185.108 654.04,185.123 654.04,185.139 z" />
					<path
   style="fill:#6ab023;fill-opacity:1"
   id="path194"
   d="M 654.01,185.275 L 654.01,185.374 L 654.01,185.374 C 654.01,185.338 654.022,185.301 654.022,185.275 L 654.01,185.275 z" />
					<path
   style="fill:#6ab023;fill-opacity:1"
   id="path196"
   d="M 654.047,185.096 C 654.059,185.071 654.075,185.043 654.088,185.003 L 654.01,184.972 L 654.01,185.071 C 654.01,185.079 654.022,185.091 654.022,185.103 L 654.047,185.096 z" />
					<path
   style="fill:#6ab023;fill-opacity:1"
   id="path198"
   d="M 654.04,185.139 C 654.04,185.122 654.047,185.108 654.047,185.096 L 654.022,185.103 C 654.021,185.108 654.031,185.123 654.04,185.139 z" />
					<path
   style="fill:#6ab023;fill-opacity:1"
   id="path200"
   d="M 654.021,185.275 C 654.021,185.301 654.009,185.338 654.009,185.374 C 654.039,185.374 654.058,185.361 654.087,185.346 L 654.021,185.275 z" />
					<path
   style="fill:#6ab023;fill-opacity:1"
   id="path202"
   d="M 650.467,184.838 L 650.426,184.674 L 650.114,184.674 C 650.21,184.674 650.21,184.876 650.21,184.972 L 650.436,184.914 L 650.467,184.838 z" />
					<path
   style="fill:#6ab023;fill-opacity:1"
   id="path204"
   d="M 651.114,184.674 L 650.847,184.674 C 650.971,184.783 650.865,184.705 650.744,184.674 L 650.611,184.674 L 650.611,184.765 L 650.813,184.765 L 650.813,184.838 L 650.821,184.838 C 650.865,184.744 651.031,184.674 651.114,184.674 z" />
					<polygon
   style="fill:#6ab023;fill-opacity:1"
   id="polygon206"
   points="650.531,184.674 650.426,184.674 650.467,184.838 650.531,184.674 " />
					<polygon
   style="fill:#6ab023;fill-opacity:1"
   id="polygon208"
   points="650.436,184.914 650.21,184.972 650.405,184.972 650.436,184.914 " />
					<path
   style="fill:#6ab023;fill-opacity:1"
   id="path210"
   d="M 650.814,184.876 C 650.814,184.859 650.814,184.841 650.822,184.838 L 650.814,184.838 L 650.814,184.876 z" />
					<polygon
   style="fill:#6ab023;fill-opacity:1"
   id="polygon212"
   points="650.467,184.838 650.436,184.914 650.481,184.909 650.467,184.838 " />
					<polygon
   style="fill:#6ab023;fill-opacity:1"
   id="polygon214"
   points="650.512,184.904 650.512,184.876 650.638,184.876 650.814,184.838 650.814,184.765 650.612,184.765 650.612,184.674 650.531,184.674 650.467,184.838 650.481,184.909 650.512,184.904 " />
					<path
   style="fill:#6ab023;fill-opacity:1"
   id="path216"
   d="M 650.848,184.674 L 650.745,184.674 C 650.865,184.706 650.972,184.783 650.848,184.674 z" />
					<polygon
   style="fill:#6ab023;fill-opacity:1"
   id="polygon218"
   points="650.436,184.914 650.405,184.972 650.498,184.972 650.481,184.909 650.436,184.914 " />
					<polygon
   style="fill:#6ab023;fill-opacity:1"
   id="polygon220"
   points="650.481,184.909 650.498,184.972 650.512,184.972 650.512,184.904 650.481,184.909 " />
					<polygon
   style="fill:#6ab023;fill-opacity:1"
   id="polygon222"
   points="650.638,184.876 650.814,184.876 650.814,184.838 650.638,184.876 " />
					<path
   style="fill:#6ab023;fill-opacity:1"
   id="path224"
   d="M 654.01,185.071 L 653.886,185.071 C 653.902,185.079 653.911,185.096 653.916,185.103 L 654.01,185.103 L 654.01,185.071 z" />
					<path
   style="fill:#6ab023;fill-opacity:1"
   id="path226"
   d="M 654.126,185.321 C 654.176,185.387 654.207,185.425 654.207,185.47 C 654.207,185.435 654.187,185.374 654.141,185.316 C 654.141,185.321 654.131,185.321 654.126,185.321 z" />
					<path
   style="fill:#6ab023;fill-opacity:1"
   id="path228"
   d="M 653.916,185.103 C 653.969,185.197 654.01,185.275 654.01,185.275 L 654.01,185.103 L 653.916,185.103 z" />
					<path
   style="fill:#6ab023;fill-opacity:1"
   id="path230"
   d="M 653.916,184.972 L 653.814,184.876 C 653.814,184.909 653.854,184.992 653.885,185.071 L 654.009,185.071 L 653.916,184.972 z" />
					<path
   style="fill:#6ab023;fill-opacity:1"
   id="path232"
   d="M 654.088,185.346 L 654.207,185.47 C 654.207,185.425 654.176,185.387 654.126,185.321 C 654.113,185.338 654.103,185.343 654.088,185.346 z" />
					<path
   style="fill:#6ab023;fill-opacity:1"
   id="path234"
   d="M 654.021,185.103 C 654.021,185.091 654.009,185.08 654.009,185.071 L 654.009,185.103 L 654.021,185.103 z" />
					<path
   style="fill:#6ab023;fill-opacity:1"
   id="path236"
   d="M 654.126,185.321 C 654.131,185.321 654.141,185.321 654.141,185.316 C 654.103,185.253 654.059,185.19 654.04,185.139 C 654.04,185.142 654.031,185.149 654.031,185.154 C 654.055,185.224 654.088,185.283 654.126,185.321 z" />
					<path
   style="fill:#6ab023;fill-opacity:1"
   id="path238"
   d="M 654.031,185.154 C 654.021,185.139 654.021,185.123 654.021,185.103 L 654.009,185.103 L 654.009,185.275 L 654.021,185.275 C 654.021,185.23 654.021,185.19 654.031,185.154 z" />
					<path
   style="fill:#6ab023;fill-opacity:1"
   id="path240"
   d="M 654.021,185.103 C 654.021,185.091 654.009,185.08 654.009,185.071 C 654.01,185.08 654.021,185.091 654.021,185.103 L 654.021,185.103 z" />
					<path
   style="fill:#6ab023;fill-opacity:1"
   id="path242"
   d="M 654.021,185.103 C 654.021,185.123 654.021,185.139 654.031,185.154 C 654.031,185.149 654.04,185.143 654.04,185.139 C 654.031,185.123 654.021,185.108 654.021,185.103 L 654.021,185.103 z" />
					<path
   style="fill:#6ab023;fill-opacity:1"
   id="path244"
   d="M 654.021,185.275 L 654.087,185.346 C 654.102,185.343 654.112,185.338 654.125,185.321 C 654.087,185.283 654.054,185.223 654.03,185.154 C 654.021,185.19 654.021,185.23 654.021,185.275 z" />
					<path
   style="fill:#6ab023;fill-opacity:1"
   id="path246"
   d="M 655.612,184.467 L 655.631,184.484 L 655.636,184.467 C 655.636,184.467 655.621,184.467 655.612,184.467 z" />
					<path
   style="fill:#6ab023;fill-opacity:1"
   id="path248"
   d="M 655.718,184.467 C 655.692,184.467 655.665,184.467 655.636,184.467 L 655.631,184.484 L 655.718,184.55 L 655.718,184.467 z" />
					<path
   style="fill:#6ab023;fill-opacity:1"
   id="path250"
   d="M 655.918,184.674 C 655.918,184.497 655.918,184.47 655.718,184.467 L 655.718,184.55 L 656.015,184.765 L 655.918,184.674 z" />
					<path
   style="fill:#6ab023;fill-opacity:1"
   id="path252"
   d="M 649.492,190.654 L 649.309,190.672 C 649.349,190.672 649.413,190.71 649.492,190.753 C 649.5,190.722 649.509,190.707 649.51,190.672 L 649.492,190.654 z" />
					<path
   style="fill:#6ab023;fill-opacity:1"
   id="path254"
   d="M 650.21,190.722 L 650.21,190.672 L 650.555,190.672 C 650.545,190.619 650.578,190.558 650.638,190.502 L 649.492,190.654 L 649.51,190.672 C 649.509,190.707 649.5,190.722 649.492,190.753 C 649.5,190.753 649.51,190.763 649.513,190.763 L 650.21,190.722 z" />
					<path
   style="fill:#6ab023;fill-opacity:1"
   id="path256"
   d="M 650.005,190.875 L 650.005,190.772 L 649.547,190.772 C 649.704,190.851 649.891,190.935 650.005,190.875 z" />
					<path
   style="fill:#6ab023;fill-opacity:1"
   id="path258"
   d="M 650.555,190.672 L 650.815,190.672 L 650.815,190.473 L 650.638,190.501 C 650.578,190.558 650.545,190.619 650.555,190.672 z" />
					<path
   style="fill:#6ab023;fill-opacity:1"
   id="path260"
   d="M 649.514,190.763 C 649.526,190.768 649.538,190.773 649.547,190.773 L 650.005,190.773 L 650.21,190.773 L 650.21,190.722 L 649.514,190.763 z" />
					<path
   style="fill:#6ab023;fill-opacity:1"
   id="path262"
   d="M 666.318,198.675 L 666.52,198.675 L 666.358,198.659 C 666.35,198.667 666.335,198.667 666.318,198.675 z" />
					<path
   style="fill:#6ab023;fill-opacity:1"
   id="path264"
   d="M 664.72,198.464 L 665.321,198.675 L 666.319,198.675 C 666.336,198.667 666.35,198.667 666.359,198.659 L 664.72,198.464 z" />
					<path
   style="fill:#6ab023;fill-opacity:1"
   id="path266"
   d="M 663.395,197.977 L 663.421,197.994 C 663.421,197.986 663.421,197.986 663.421,197.977 C 663.419,197.977 663.406,197.977 663.395,197.977 z" />
					<polygon
   style="fill:#6ab023;fill-opacity:1"
   id="polygon268"
   points="663.519,198.184 663.519,198.184 663.519,198.184 " />
					<path
   style="fill:#6ab023;fill-opacity:1"
   id="path270"
   d="M 663.774,198.28 L 663.619,198.28 C 663.619,198.252 663.581,198.214 663.518,198.184 L 663.518,198.184 L 663.518,198.184 C 663.387,198.084 663.125,197.977 663.125,197.977 C 663.125,198.084 663.218,198.084 663.218,198.28 L 663.819,198.351 C 663.819,198.288 663.796,198.288 663.774,198.28 z" />
					<path
   style="fill:#6ab023;fill-opacity:1"
   id="path272"
   d="M 663.819,198.351 C 663.828,198.356 663.828,198.372 663.828,198.383 L 663.828,198.351 L 663.819,198.351 z" />
					<path
   style="fill:#6ab023;fill-opacity:1"
   id="path274"
   d="M 663.828,198.28 L 663.774,198.28 C 663.795,198.288 663.819,198.288 663.819,198.351 L 663.828,198.351 L 663.828,198.28 z" />
					<path
   style="fill:#6ab023;fill-opacity:1"
   id="path276"
   d="M 664.024,198.383 C 664.024,198.588 664.126,198.383 664.126,198.588 L 664.225,198.588 C 664.225,198.391 664.126,198.576 664.126,198.391 L 664.05,198.383 L 664.024,198.383 z" />
					<path
   style="fill:#6ab023;fill-opacity:1"
   id="path278"
   d="M 664.524,198.78 L 664.719,198.78 L 664.719,198.879 L 665.52,198.879 L 665.52,198.78 C 665.431,198.676 664.916,198.879 664.82,198.78 L 664.82,198.676 L 664.46,198.676 C 664.486,198.686 664.524,198.667 664.524,198.78 z" />
					<path
   style="fill:#6ab023;fill-opacity:1"
   id="path280"
   d="M 663.519,198.184 L 663.519,198.184 L 663.721,198.184 C 663.721,198.288 663.741,198.28 663.775,198.28 L 663.829,198.28 L 663.829,198.351 L 664.051,198.383 L 664.127,198.383 C 664.127,198.391 664.127,198.391 664.127,198.391 L 664.721,198.464 L 663.422,197.994 C 663.431,198.163 663.519,197.985 663.519,198.184 z" />
					<path
   style="fill:#6ab023;fill-opacity:1"
   id="path282"
   d="M 663.395,197.977 L 663.126,197.886 C 663.126,197.972 663.281,197.977 663.395,197.977 z" />
					<path
   style="fill:#6ab023;fill-opacity:1"
   id="path284"
   d="M 664.46,198.675 C 664.437,198.675 664.425,198.667 664.425,198.588 L 664.425,198.675 L 664.46,198.675 z" />
					<path
   style="fill:#6ab023;fill-opacity:1"
   id="path286"
   d="M 654.519,192.272 C 654.618,192.272 654.618,192.302 654.618,192.321 L 654.618,192.272 L 654.519,192.272 z" />
					<path
   style="fill:#6ab023;fill-opacity:1"
   id="path288"
   d="M 654.411,191.978 C 654.01,191.376 654.113,191.574 654.411,192.076 L 654.518,192.076 L 654.518,191.978 L 654.411,191.978 z" />
					<path
   style="fill:#6ab023;fill-opacity:1"
   id="path290"
   d="M 654.884,192.772 C 654.86,192.755 654.838,192.732 654.81,192.714 C 654.81,192.741 654.81,192.772 654.884,192.772 z" />
					<path
   style="fill:#6ab023;fill-opacity:1"
   id="path292"
   d="M 654.617,192.322 L 654.617,192.478 L 654.721,192.478 L 654.721,192.375 C 654.617,192.375 654.617,192.349 654.617,192.322 z" />
					<path
   style="fill:#6ab023;fill-opacity:1"
   id="path294"
   d="M 654.912,192.772 C 654.895,192.772 654.892,192.772 654.884,192.772 C 654.893,192.785 654.903,192.791 654.912,192.805 L 654.912,192.805 L 654.912,192.772 z" />
					<path
   style="fill:#6ab023;fill-opacity:1"
   id="path296"
   d="M 654.722,192.679 C 654.737,192.679 654.779,192.687 654.81,192.714 C 654.81,192.696 654.8,192.679 654.722,192.679 z" />
					<polygon
   style="fill:#6ab023;fill-opacity:1"
   id="polygon298"
   points="654.912,192.805 654.912,192.805 654.912,192.805 " />
					<path
   style="fill:#6ab023;fill-opacity:1"
   id="path300"
   d="M 655.002,192.997 C 654.959,193.039 655.024,193.012 655.002,192.997 L 655.002,192.997 z" />
					<path
   style="fill:#6ab023;fill-opacity:1"
   id="path302"
   d="M 655.002,192.997 C 655.005,192.991 655.005,192.982 655.014,192.977 C 655.014,192.932 654.969,192.864 654.912,192.805 L 654.912,192.977 C 654.969,192.978 654.99,192.982 655.002,192.997 z" />
					<path
   style="fill:#6ab023;fill-opacity:1"
   id="path304"
   d="M 656.913,193.477 L 657.017,193.379 C 657.017,193.283 657.017,193.177 657.111,193.177 L 656.413,193.177 L 656.413,193.46 C 656.43,193.465 656.444,193.477 656.446,193.477 L 656.913,193.477 L 656.913,193.477 z" />
					<path
   style="fill:#6ab023;fill-opacity:1"
   id="path306"
   d="M 656.446,193.477 C 656.444,193.477 656.429,193.465 656.413,193.46 L 656.413,193.477 L 656.446,193.477 z" />
				</g><g
     transform="matrix(0.8413759,0,0,0.8413759,178.06096,360.16834)"
     id="g3351"
     style="fill:#6ab023;fill-opacity:1"><path
       style="fill:#6ab023;fill-opacity:1"
       id="path310"
       d="M 181.80281,96.705017 C 176.86281,94.819017 171.4738,93.651017 165.72481,93.651017 C 153.95781,93.651017 145.78481,101.01602 145.78481,113.95102 C 145.78481,126.25602 152.3418,133.53202 164.28781,133.53202 C 166.71281,133.53202 169.0478,133.17302 171.2038,132.54402 L 171.2038,111.97502 L 183.86881,111.97502 L 183.86881,141.07702 C 177.76181,143.50202 170.3958,144.84902 162.85081,144.84902 C 143.4498,144.84902 132.13181,133.44102 132.13181,115.02802 C 132.13181,95.986017 145.2458,82.423017 166.4438,82.423017 C 172.55181,82.423017 178.5698,83.501017 183.68981,85.028017 L 181.80281,96.705017 z" /><path
       style="fill:#6ab023;fill-opacity:1"
       id="path312"
       d="M 215.8438,110.53702 C 207.4898,108.83002 203.35881,113.86102 203.35881,125.62702 L 203.35881,143.95002 L 190.9638,143.95002 L 190.9638,99.309017 L 202.5508,99.309017 C 202.5508,101.37502 202.4608,104.87802 201.83181,107.84202 L 202.01181,107.84202 C 204.16781,102.36302 208.4788,97.602017 216.65281,98.321017 L 215.8438,110.53702 z" /><path
       style="fill:#6ab023;fill-opacity:1"
       id="path314"
       d="M 257.78981,124.10002 L 230.5738,124.10002 C 230.5738,131.55502 234.5258,135.23802 242.3408,135.23802 C 246.7418,135.23802 251.50281,134.34002 255.45481,132.45302 L 256.6218,141.97402 C 251.5918,143.86002 246.02281,144.84802 240.3648,144.84802 C 225.9038,144.84802 217.9998,137.84202 217.9998,122.03302 C 217.9998,108.38102 225.5448,98.321017 239.1968,98.321017 C 252.4008,98.321017 258.2388,107.30302 258.2388,118.53002 C 258.2388,120.23802 258.0598,122.03402 257.78981,124.10002 z M 245.93381,115.74702 C 246.2038,110.35802 243.4188,107.30402 238.83781,107.30402 C 234.25681,107.30402 231.20281,110.71702 230.7538,115.74702 L 245.93381,115.74702 z" /><path
       style="fill:#6ab023;fill-opacity:1"
       id="path316"
       d="M 301.5318,124.10002 L 274.3158,124.10002 C 274.3158,131.55502 278.2678,135.23802 286.08281,135.23802 C 290.48381,135.23802 295.2448,134.34002 299.1968,132.45302 L 300.3638,141.97402 C 295.3338,143.86002 289.7648,144.84802 284.1068,144.84802 C 269.6458,144.84802 261.7408,137.84202 261.7408,122.03302 C 261.7408,108.38102 269.2858,98.321017 282.93881,98.321017 C 296.14281,98.321017 301.98081,107.30302 301.98081,118.53002 C 301.98081,120.23802 301.8018,122.03402 301.5318,124.10002 z M 289.67581,115.74702 C 289.94581,110.35802 287.1608,107.30402 282.57981,107.30402 C 277.99881,107.30402 274.94481,110.71702 274.49581,115.74702 L 289.67581,115.74702 z" /><path
       style="fill:#6ab023;fill-opacity:1"
       id="path318"
       d="M 333.7768,143.95102 L 333.7768,115.47802 C 333.7768,111.25602 332.6988,108.65102 328.8368,108.65102 C 323.3578,108.65102 319.0458,115.02802 319.0458,122.39402 L 319.0458,143.95102 L 306.6508,143.95102 L 306.6508,99.309017 L 318.2378,99.309017 C 318.2378,101.19502 318.14781,104.60902 317.6988,106.85402 L 317.7888,106.94402 C 320.5738,101.91402 325.6028,98.321017 332.7888,98.321017 C 342.8488,98.321017 346.0818,104.78802 346.0818,112.51202 L 346.0818,143.95002 L 333.7768,143.95002 L 333.7768,143.95102 z" /><path
       style="fill:#6ab023;fill-opacity:1"
       id="path320"
       d="M 385.6018,123.20202 C 384.43481,123.20202 383.2668,123.20202 381.9188,123.11202 L 381.9188,143.95002 L 369.3438,143.95002 L 369.3438,83.321017 C 374.37381,83.051017 379.8528,82.962017 385.9608,82.962017 C 401.3198,82.962017 409.4038,89.788017 409.4038,102.00402 C 409.4038,113.77102 400.6018,123.20202 385.6018,123.20202 z M 385.6018,93.202017 C 384.43481,93.202017 383.17681,93.202017 381.9188,93.292017 L 381.9188,112.51402 C 382.9968,112.69402 383.98481,112.78402 384.97281,112.78402 C 391.70981,112.69402 396.37981,109.10102 396.37981,102.63502 C 396.37981,96.885017 393.1458,93.202017 385.6018,93.202017 z" /><path
       style="fill:#6ab023;fill-opacity:1"
       id="path322"
       d="M 436.6188,143.95102 C 436.6188,141.52602 436.7088,139.01102 437.0678,136.76502 L 436.97781,136.67502 C 434.8228,141.61502 429.43281,144.84902 422.9658,144.84902 C 414.7018,144.84902 410.1208,140.08802 410.1208,132.90302 C 410.1208,122.03402 420.8088,116.46502 435.63081,116.46502 L 435.63081,114.30902 C 435.63081,109.99802 433.5648,107.84202 427.18781,107.84202 C 423.1458,107.84202 417.7558,109.18902 414.0738,111.25502 L 412.99581,100.92502 C 417.5768,99.398017 423.3258,98.231017 429.0738,98.231017 C 443.8038,98.231017 448.0258,104.15902 448.0258,113.95002 L 448.0258,132.81202 C 448.0258,136.31502 448.0258,140.35702 448.2958,143.95002 L 436.6188,143.95002 L 436.6188,143.95102 z M 435.6318,124.37002 C 424.40281,124.37002 421.7988,127.60402 421.7988,131.01702 C 421.7988,133.62102 423.68581,135.41802 426.8288,135.41802 C 432.1278,135.41802 435.6318,130.56802 435.6318,125.53802 L 435.6318,124.37002 L 435.6318,124.37002 z" /><path
       style="fill:#6ab023;fill-opacity:1"
       id="path324"
       d="M 478.5648,110.53702 C 470.2108,108.83002 466.07981,113.86102 466.07981,125.62702 L 466.07981,143.95002 L 453.68381,143.95002 L 453.68381,99.309017 L 465.2708,99.309017 C 465.2708,101.37502 465.18081,104.87802 464.5528,107.84202 L 464.7328,107.84202 C 466.88781,102.36302 471.19981,97.602017 479.37381,98.321017 L 478.5648,110.53702 z" /><path
       style="fill:#6ab023;fill-opacity:1"
       id="path326"
       d="M 514.22381,143.68102 C 511.2598,144.40002 507.3978,144.84902 504.2528,144.84902 C 494.1928,144.84902 490.95981,141.25602 490.95981,130.74702 L 490.95981,108.83002 L 483.68481,108.83002 L 483.68481,99.309017 L 490.95981,99.309017 L 490.95981,85.746017 L 503.2658,82.513017 L 503.2658,99.309017 L 513.6848,99.309017 L 513.6848,108.83002 L 503.3558,108.83002 L 503.3558,127.60302 C 503.3558,132.99202 504.52281,134.51902 508.3848,134.51902 C 510.0918,134.51902 511.52981,134.24902 513.23581,133.80002 L 514.22381,143.68102 z" /><path
       style="fill:#6ab023;fill-opacity:1"
       id="path328"
       d="M 543.50381,147.18402 C 538.20381,161.10702 533.1748,166.04602 521.85681,166.04602 C 520.06081,166.04602 518.08481,165.77602 516.01881,165.32702 L 517.3668,154.81802 C 519.07281,155.44702 520.95981,155.71602 523.02481,155.71602 C 526.8868,155.71602 529.1328,153.82902 531.55781,147.36202 L 532.81581,143.94902 L 516.4678,99.308017 L 530.11981,99.308017 L 535.50981,114.75702 C 536.8578,118.61902 538.11381,123.11102 539.10281,127.33202 L 539.1928,127.33202 C 540.1808,123.11002 541.97681,117.18202 543.41481,113.05002 L 548.26581,99.307017 L 561.46881,99.307017 L 543.50381,147.18402 z" /></g></g>
</svg>